<?xml version="1.0" encoding="utf-8"?>
<!-- Generator: Adobe Illustrator 24.0.2, SVG Export Plug-In . SVG Version: 6.00 Build 0)  -->
<svg version="1.1"
	 id="svg249" inkscape:export-filename="/home/jimmac/gfx/novell/pdes/trunk/docs/BIGmime-text.png" inkscape:export-xdpi="240.00000" inkscape:export-ydpi="240.00000" inkscape:output_extension="org.inkscape.output.svg.inkscape" inkscape:version="0.48.0 r9654" sodipodi:docname="AFC-Logo.svg" sodipodi:version="0.32" xmlns:cc="http://creativecommons.org/ns#" xmlns:dc="http://purl.org/dc/elements/1.1/" xmlns:inkscape="http://www.inkscape.org/namespaces/inkscape" xmlns:rdf="http://www.w3.org/1999/02/22-rdf-syntax-ns#" xmlns:sodipodi="http://sodipodi.sourceforge.net/DTD/sodipodi-0.dtd" xmlns:svg="http://www.w3.org/2000/svg"
	 xmlns="http://www.w3.org/2000/svg" xmlns:xlink="http://www.w3.org/1999/xlink" x="0px" y="0px" viewBox="0 0 144 144"
	 style="enable-background:new 0 0 144 144;" xml:space="preserve">
<style type="text/css">
	.st0{fill:#FFFFFF;}
	.st1{opacity:0.7836;fill-rule:evenodd;clip-rule:evenodd;fill:url(#path3667_1_);enable-background:new    ;}
	.st2{fill:url(#rect15391_1_);stroke:url(#rect15391_2_);stroke-linecap:round;stroke-linejoin:round;}
	.st3{fill:none;stroke:url(#rect15660_1_);stroke-linecap:round;stroke-linejoin:round;}
	.st4{fill:url(#path15570_1_);}
	.st5{fill:url(#path15577_1_);}
	.st6{fill:none;stroke:#000000;stroke-width:0.9886;stroke-opacity:1.754385e-02;}
	.st7{fill:none;stroke:#FFFFFF;stroke-opacity:0.2047;}
	.st8{fill:#9B9B9B;fill-opacity:0.5497;}
	.st9{fill:url(#field_1_);stroke:url(#field_2_);stroke-width:0.7077;stroke-miterlimit:1.4153;}
	.st10{display:none;}
</style>
<rect class="st0" width="144" height="144"/>
<defs>
	
		<inkscape:perspective  id="perspective65" inkscape:persp3d-origin="24 : 16 : 1" inkscape:vp_x="0 : 24 : 1" inkscape:vp_y="0 : 1000 : 0" inkscape:vp_z="48 : 24 : 1" sodipodi:type="inkscape:persp3d">
		</inkscape:perspective>
	
		<inkscape:perspective  id="perspective2995" inkscape:persp3d-origin="31 : 20.666667 : 1" inkscape:vp_x="0 : 31 : 1" inkscape:vp_y="0 : 1000 : 0" inkscape:vp_z="62 : 31 : 1" sodipodi:type="inkscape:persp3d">
		</inkscape:perspective>
	
		<inkscape:perspective  id="perspective3147" inkscape:persp3d-origin="64 : 42.666667 : 1" inkscape:vp_x="0 : 64 : 1" inkscape:vp_y="0 : 1000 : 0" inkscape:vp_z="128 : 64 : 1" sodipodi:type="inkscape:persp3d">
		</inkscape:perspective>
</defs>
<sodipodi:namedview  bordercolor="#666666" borderopacity="0.25490196" id="base" inkscape:current-layer="layer5" inkscape:cx="34.951936" inkscape:cy="19.669404" inkscape:document-units="px" inkscape:grid-bbox="true" inkscape:pageopacity="0.0" inkscape:pageshadow="2" inkscape:showpageshadow="false" inkscape:window-height="715" inkscape:window-maximized="0" inkscape:window-width="1020" inkscape:window-x="0" inkscape:window-y="0" inkscape:zoom="13.759119" pagecolor="#ffffff" showgrid="false">
	</sodipodi:namedview>
<g id="layer6" inkscape:groupmode="layer" inkscape:label="Shadow">
	
		<radialGradient id="path3667_1_" cx="74.7015" cy="-91.0742" r="37.6331" gradientTransform="matrix(1 0 0 -0.2849 0 88.8411)" gradientUnits="userSpaceOnUse">
		<stop  offset="0" style="stop-color:#000000"/>
		<stop  offset="1" style="stop-color:#000000;stop-opacity:0"/>
	</radialGradient>
	
		<path id="path3667" sodipodi:cx="24.306795" sodipodi:cy="42.07798" sodipodi:rx="15.821514" sodipodi:ry="4.5078058" sodipodi:type="arc" class="st1" d="
		M112.3,114.8c0,5.9-16.8,10.7-37.6,10.7s-37.6-4.8-37.6-10.7c0,0,0,0,0,0c0-5.9,16.8-10.7,37.6-10.7S112.3,108.9,112.3,114.8
		C112.3,114.8,112.3,114.8,112.3,114.8z"/>
</g>
<g id="layer1" inkscape:groupmode="layer" inkscape:label="Base">
	
		<radialGradient id="rect15391_1_" cx="97.4233" cy="47.5787" r="206.2073" gradientTransform="matrix(0.9605 0 0 -1.0411 0.9087 151.0592)" gradientUnits="userSpaceOnUse">
		<stop  offset="0" style="stop-color:#FAFAFA"/>
		<stop  offset="1" style="stop-color:#BBBBBB"/>
	</radialGradient>
	
		<radialGradient id="rect15391_2_" cx="42.9219" cy="122.206" r="88.3747" gradientTransform="matrix(0.9683 0 0 -1.0328 4.0833 150.6768)" gradientUnits="userSpaceOnUse">
		<stop  offset="0" style="stop-color:#A3A3A3"/>
		<stop  offset="1" style="stop-color:#4C4C4C"/>
	</radialGradient>
	<path id="rect15391" class="st2" d="M35.3,21.7h77.5c1.5,0,2.7,1.2,2.7,2.7v91.9c0,1.5-1.2,2.7-2.7,2.7H35.3
		c-1.5,0-2.7-1.2-2.7-2.7V24.4C32.6,22.9,33.8,21.7,35.3,21.7z"/>
	
		<radialGradient id="rect15660_1_" cx="41.3592" cy="113.9494" r="89.2413" gradientTransform="matrix(0.9683 0 0 -1.0328 4.0833 150.6768)" gradientUnits="userSpaceOnUse">
		<stop  offset="0" style="stop-color:#FFFFFF"/>
		<stop  offset="1" style="stop-color:#F8F8F8"/>
	</radialGradient>
	<path id="rect15660" class="st3" d="M35.5,23.9h77.2c0.2,0,0.4,0.2,0.4,0.4v91.9c0,0.2-0.2,0.4-0.4,0.4H35.5
		c-0.2,0-0.4-0.2-0.4-0.4V24.3C35.1,24.1,35.3,23.9,35.5,23.9z"/>
	<g id="g2270" transform="translate(0.646447,-3.798933e-2)">
		<g id="g1440" transform="matrix(0.229703,0.000000,0.000000,0.229703,4.967081,4.244972)">
			<path id="path1448" class="st0" d="M163,350.9c0,4.7-3.8,8.5-8.5,8.5c-4.7,0-8.5-3.8-8.5-8.5c0-4.7,3.8-8.5,8.5-8.5
				C159.1,342.4,163,346.2,163,350.9z"/>
			<path id="path1456" class="st0" d="M163,232c0,4.7-3.8,8.5-8.5,8.5c-4.7,0-8.5-3.8-8.5-8.5c0-4.7,3.8-8.5,8.5-8.5
				C159.1,223.5,163,227.3,163,232z"/>
		</g>
		
			<radialGradient id="path15570_1_" cx="77.0232" cy="-129.7121" r="12.4997" gradientTransform="matrix(0.2297 0 0 -0.2297 22.4789 55.242)" gradientUnits="userSpaceOnUse">
			<stop  offset="0" style="stop-color:#F0F0F0"/>
			<stop  offset="1" style="stop-color:#9A9A9A"/>
		</radialGradient>
		<path id="path15570" class="st4" d="M41.6,84.2c0,1.1-0.9,2-2,2c-1.1,0-2-0.9-2-2c0-1.1,0.9-2,2-2S41.6,83.1,41.6,84.2z"/>
		
			<radialGradient id="path15577_1_" cx="77.0232" cy="-10.8025" r="12.502" gradientTransform="matrix(0.2297 0 0 -0.2297 22.4789 55.242)" gradientUnits="userSpaceOnUse">
			<stop  offset="0" style="stop-color:#F0F0F0"/>
			<stop  offset="1" style="stop-color:#9A9A9A"/>
		</radialGradient>
		<path id="path15577" class="st5" d="M41.6,56.9c0,1.1-0.9,2-2,2c-1.1,0-2-0.9-2-2c0-1.1,0.9-2,2-2S41.6,55.8,41.6,56.9z"/>
	</g>
	<path id="path15672" sodipodi:nodetypes="cc" class="st6" d="M44.3,26.1v90.1"/>
	<path id="path15674" sodipodi:nodetypes="cc" class="st7" d="M46.6,25v90.4"/>
</g>
<g id="g2253" transform="matrix(0.909091,0.000000,0.000000,1.000000,2.363628,0.000000)">
	<path id="rect15686" class="st8" d="M58.2,34.4h51.6c0.2,0,0.4,0.1,0.4,0.2v2.1c0,0.1-0.2,0.2-0.4,0.2H58.2c-0.2,0-0.4-0.1-0.4-0.2
		v-2.1C57.8,34.5,58,34.4,58.2,34.4z"/>
	<path id="rect15688" class="st8" d="M58.2,39.2h51.6c0.2,0,0.4,0.1,0.4,0.2v2.1c0,0.1-0.2,0.2-0.4,0.2H58.2c-0.2,0-0.4-0.1-0.4-0.2
		v-2.1C57.8,39.3,58,39.2,58.2,39.2z"/>
	<path id="rect15690" class="st8" d="M58.2,44h51.6c0.2,0,0.4,0.1,0.4,0.2v2.1c0,0.1-0.2,0.2-0.4,0.2H58.2c-0.2,0-0.4-0.1-0.4-0.2
		v-2.1C57.8,44,58,44,58.2,44z"/>
	<path id="rect15692" class="st8" d="M58.2,48.7h51.6c0.2,0,0.4,0.1,0.4,0.2v2.1c0,0.1-0.2,0.2-0.4,0.2H58.2c-0.2,0-0.4-0.1-0.4-0.2
		v-2.1C57.8,48.8,58,48.7,58.2,48.7z"/>
	<path id="rect15694" class="st8" d="M58.2,53.5h51.6c0.2,0,0.4,0.1,0.4,0.2v2.1c0,0.1-0.2,0.2-0.4,0.2H58.2c-0.2,0-0.4-0.1-0.4-0.2
		v-2.1C57.8,53.5,58,53.5,58.2,53.5z"/>
	<path id="rect15696" class="st8" d="M58.2,58.2h51.6c0.2,0,0.4,0.1,0.4,0.2v2.1c0,0.1-0.2,0.2-0.4,0.2H58.2c-0.2,0-0.4-0.1-0.4-0.2
		v-2.1C57.8,58.3,58,58.2,58.2,58.2z"/>
	<path id="rect15698" class="st8" d="M58.2,63h51.6c0.2,0,0.4,0.1,0.4,0.2v2.1c0,0.1-0.2,0.2-0.4,0.2H58.2c-0.2,0-0.4-0.1-0.4-0.2
		v-2.1C57.8,63.1,58,63,58.2,63z"/>
	<path id="rect15700" class="st8" d="M58.2,67.7h51.6c0.2,0,0.4,0.1,0.4,0.2V70c0,0.1-0.2,0.2-0.4,0.2H58.2c-0.2,0-0.4-0.1-0.4-0.2
		v-2.1C57.8,67.8,58,67.7,58.2,67.7z"/>
	<path id="rect15732" class="st8" d="M58,72.5h23.2c0.1,0,0.2,0.1,0.2,0.2v2.1c0,0.1-0.1,0.2-0.2,0.2H58c-0.1,0-0.2-0.1-0.2-0.2
		v-2.1C57.8,72.6,57.9,72.5,58,72.5z"/>
	<path id="rect15736" class="st8" d="M58.2,82h51.6c0.2,0,0.4,0.1,0.4,0.2v2.1c0,0.1-0.2,0.2-0.4,0.2H58.2c-0.2,0-0.4-0.1-0.4-0.2
		v-2.1C57.8,82.1,58,82,58.2,82z"/>
	<path id="rect15738" class="st8" d="M58.2,86.8h51.6c0.2,0,0.4,0.1,0.4,0.2V89c0,0.1-0.2,0.2-0.4,0.2H58.2c-0.2,0-0.4-0.1-0.4-0.2
		v-2.1C57.8,86.8,58,86.8,58.2,86.8z"/>
	<path id="rect15740" class="st8" d="M58.2,91.5h51.6c0.2,0,0.4,0.1,0.4,0.2v2.1c0,0.1-0.2,0.2-0.4,0.2H58.2c-0.2,0-0.4-0.1-0.4-0.2
		v-2.1C57.8,91.6,58,91.5,58.2,91.5z"/>
	<path id="rect15742" class="st8" d="M58.2,96.3h51.6c0.2,0,0.4,0.1,0.4,0.2v2.1c0,0.1-0.2,0.2-0.4,0.2H58.2c-0.2,0-0.4-0.1-0.4-0.2
		v-2.1C57.8,96.3,58,96.3,58.2,96.3z"/>
	<path id="rect15744" class="st8" d="M58.1,101h36.1c0.1,0,0.3,0.1,0.3,0.2v2.1c0,0.1-0.1,0.2-0.3,0.2H58.1c-0.1,0-0.3-0.1-0.3-0.2
		v-2.1C57.8,101.1,58,101,58.1,101z"/>
</g>
<g id="g3022" transform="matrix(0.35383701,0,0,0.35438645,22.54269,25.82888)">
	
		<linearGradient id="field_1_" gradientUnits="userSpaceOnUse" x1="485.1737" y1="25.0693" x2="435.299" y2="-81.8874" gradientTransform="matrix(0.3538 0 0 -0.3544 64.5444 162.0722)">
		<stop  offset="0" style="stop-color:#A8FE9C"/>
		<stop  offset="1" style="stop-color:#5ACF57"/>
	</linearGradient>
	
		<linearGradient id="field_2_" gradientUnits="userSpaceOnUse" x1="565.2728" y1="-228.0247" x2="456.954" y2="-165.4869" gradientTransform="matrix(0.3538 0 0 -0.3544 64.5444 162.0722)">
		<stop  offset="0" style="stop-color:#30972B"/>
		<stop  offset="1" style="stop-color:#5EC75C"/>
	</linearGradient>
	
		<ellipse id="field" sodipodi:cx="31" sodipodi:cy="31" sodipodi:rx="25.799999" sodipodi:ry="25.799999" class="st9" cx="209.3" cy="211" rx="21.7" ry="21.7">
	</ellipse>
	<path id="rect3139" inkscape:connector-curvature="0" class="st0" d="M198.1,176.6v23.2h-23.2v22.3h23.2v23.2h22.3v-23.2h23.2
		v-22.3h-23.2v-23.2C220.4,176.6,198.1,176.6,198.1,176.6z"/>
</g>
<path id="letterw" class="st10" d="M109.6,29.4c0,0.2-0.1,0.5-0.2,0.7c-0.2,0.2-0.3,0.3-0.5,0.3c-1.5,0.1-2.7,0.6-3.6,1.4
	c-0.9,0.8-1.9,2.4-2.9,4.6L87.3,71c-0.1,0.3-0.4,0.5-0.8,0.5c-0.4,0-0.6-0.2-0.8-0.5l-8.5-18l-9.7,18c-0.2,0.3-0.5,0.5-0.8,0.5
	c-0.4,0-0.7-0.2-0.9-0.5L50.9,36.5C50,34.3,49,32.8,48,32c-1-0.9-2.5-1.4-4.3-1.6c-0.2,0-0.3-0.1-0.4-0.3C43.1,30,43,29.8,43,29.6
	c0-0.6,0.2-0.8,0.5-0.8c1.3,0,2.7,0.1,4.2,0.2c1.3,0.1,2.6,0.2,3.8,0.2c1.2,0,2.6-0.1,4.3-0.2c1.7-0.1,3.2-0.2,4.6-0.2
	c0.3,0,0.5,0.3,0.5,0.8c0,0.6-0.1,0.8-0.3,0.8c-1.3,0.1-2.4,0.4-3.1,1c-0.8,0.6-1.1,1.3-1.1,2.3c0,0.5,0.2,1.1,0.5,1.8l12.3,28.1
	l7-13.4l-6.5-13.8c-1.2-2.5-2.1-4.1-2.9-4.8c-0.7-0.7-1.9-1.1-3.4-1.3c-0.1,0-0.3-0.1-0.4-0.3c-0.1-0.2-0.2-0.4-0.2-0.6
	c0-0.6,0.1-0.8,0.4-0.8c1.3,0,2.5,0.1,3.6,0.2c1.1,0.1,2.2,0.2,3.4,0.2c1.2,0,2.4-0.1,3.8-0.2c1.4-0.1,2.7-0.2,4-0.2
	c0.3,0,0.5,0.3,0.5,0.8c0,0.6-0.1,0.8-0.3,0.8c-2.6,0.2-4,0.9-4,2.3c0,0.6,0.3,1.5,0.9,2.8l4.3,8.8l4.3-8.1c0.6-1.1,0.9-2.1,0.9-2.9
	c0-1.8-1.3-2.8-4-2.9c-0.2,0-0.4-0.3-0.4-0.8c0-0.2,0.1-0.4,0.2-0.6c0.1-0.2,0.2-0.3,0.4-0.3c0.9,0,2.1,0.1,3.5,0.2
	c1.3,0.1,2.4,0.2,3.3,0.2c0.6,0,1.5-0.1,2.7-0.2c1.5-0.1,2.8-0.2,3.8-0.2c0.2,0,0.4,0.2,0.4,0.7c0,0.6-0.2,1-0.7,1
	c-1.5,0.2-2.8,0.6-3.7,1.3c-0.9,0.7-2.1,2.3-3.5,4.8l-5.7,10.7l7.7,15.9l11.4-26.9c0.4-1,0.6-1.9,0.6-2.7c0-2-1.3-3-4-3.1
	c-0.2,0-0.4-0.3-0.4-0.8c0-0.6,0.2-0.8,0.5-0.8c1,0,2.1,0.1,3.4,0.2c1.2,0.1,2.3,0.2,3.1,0.2c0.9,0,1.9-0.1,3-0.2
	c1.2-0.1,2.3-0.2,3.2-0.2C109.5,28.7,109.6,29,109.6,29.4z"/>
<path id="wikipedia" d="M59.9,38.4c1.9-1.9,4.3-4.4,6-6.8c1,0,1.6-0.3,1.7-0.9l-6.1-2c-0.7,3.1-1.8,6.5-2.7,9c-1-0.5-2.3-1-3.7-1.3
	l-0.3,0.3c1.6,1.5,3.2,4.2,3.6,6.4C61.2,45.1,63.6,41.3,59.9,38.4z M62.7,71.5c2,0,3.5-0.9,3.5-1.2V50.2l1.9-0.6
	c0.3,1.1,0.6,2.2,0.6,3.2c2.6,2.5,5.7-1.3,2.1-5.2c1.3-1.2,2.4-2.6,3.6-4.1v28h0.7c2,0,3.7-1.2,3.7-1.5v-2.1h17.9
	c0.6,0,1-0.1,1.1-0.6c-2.9-2.5-4.4-3.8-4.4-3.8L91.1,67h-2.6V58h7.1c0.6,0,1-0.1,1.1-0.6c-2.7-2.4-4-3.5-4-3.5l-2.3,3.3h-1.8v-8.6
	h7.1c0.6,0,1-0.1,1.1-0.6c-2.7-2.3-4-3.5-4-3.5l-2.3,3.3h-1.8v-8.1h7.7c0.6,0,1-0.1,1.1-0.6c-2.9-2.5-4.4-3.8-4.4-3.8l-2.4,3.5h-5
	c1.5-1.9,3.5-5,4.8-6.9c1,0,1.7-0.3,1.8-1l-6.4-1.4c-0.4,2.6-1,6.9-1.7,9.3h-4.8L78,38.3c1.2-2,2.4-4.5,3.4-6.7
	c1.1,0,1.6-0.3,1.7-0.9l-6.2-1.9c-1.6,6.5-4,13.3-6.8,18c-0.9-0.7-2.1-1.4-3.4-2.1l-0.3,0.2c0.6,1,1.1,2.3,1.6,3.6
	c-2.3,0.1-4.7,0.2-6.7,0.3c3.5-3.8,7.1-8.5,9.3-11.7c1,0.1,1.6-0.2,1.8-0.8l-5.6-2c-1.7,4.2-4.4,10.1-7,14.6c-2,0.1-3.8,0.1-4.9,0.1
	l1.6,4.3c0.5-0.1,0.9-0.4,1.2-1c1.6-0.4,3.1-0.7,4.4-1.1v5.1l-4.9-1.1c-0.3,4.4-1.2,9-2.4,12.3l0.5,0.4c2.3-2.6,4.2-6.4,5.4-10.5
	c0.6,0,1.1-0.2,1.4-0.5v14.6H62.7z M84,47.8h-5.2v-8.1H84V47.8z M84,57.2h-5.2v-8.6H84V57.2z M67.4,55L67,55.2
	c1,2.3,1.9,5.6,1.9,8.3C72,66.7,76,60.1,67.4,55z M84,67h-5.2V58H84V67z"/>
</svg>
